<?xml version="1.0" encoding="UTF-8"?>
<svg version="1.1" xmlns="http://www.w3.org/2000/svg" width="1035" height="612">
<path d="M0 0 C341.55 0 683.1 0 1035 0 C1035 201.96 1035 403.92 1035 612 C693.45 612 351.9 612 0 612 C0 410.04 0 208.08 0 0 Z " fill="#FEFEFE" transform="translate(0,0)"/>
<path d="M0 0 C341.55 0 683.1 0 1035 0 C1035 201.96 1035 403.92 1035 612 C693.45 612 351.9 612 0 612 C0 410.04 0 208.08 0 0 Z M95 24 C95 200.88 95 377.76 95 560 C108.53 560 122.06 560 136 560 C136 416.12 136 272.24 136 124 C153.16 124 170.32 124 188 124 C188 113.44 188 102.88 188 92 C205.16 92 222.32 92 240 92 C240 210.8 240 329.6 240 452 C497.4 452 754.8 452 1020 452 C1020 310.76 1020 169.52 1020 24 C714.75 24 409.5 24 95 24 Z " fill="#FEFEFE" transform="translate(0,0)"/>
<path d="M0 0 C341.55 0 683.1 0 1035 0 C1035 201.96 1035 403.92 1035 612 C693.45 612 351.9 612 0 612 C0 410.04 0 208.08 0 0 Z M87 22 C87 22.66 87 23.32 87 24 C88.98 24 90.96 24 93 24 C93 58.65 93 93.3 93 129 C91.02 129 89.04 129 87 129 C87 129.66 87 130.32 87 131 C88.98 131 90.96 131 93 131 C93 165.98 93 200.96 93 237 C91.02 237 89.04 237 87 237 C87 237.66 87 238.32 87 239 C88.98 239 90.96 239 93 239 C93 273.65 93 308.3 93 344 C91.02 344 89.04 344 87 344 C87 344.66 87 345.32 87 346 C88.98 346 90.96 346 93 346 C93 380.98 93 415.96 93 452 C91.02 452 89.04 452 87 452 C87 452.66 87 453.32 87 454 C88.98 454 90.96 454 93 454 C93 488.98 93 523.96 93 560 C91.02 560 89.04 560 87 560 C87 560.66 87 561.32 87 562 C120 562 153 562 187 562 C187 563.98 187 565.96 187 568 C187.66 568 188.32 568 189 568 C189 566.02 189 564.04 189 562 C237.18 562 285.36 562 335 562 C335 563.98 335 565.96 335 568 C335.66 568 336.32 568 337 568 C337 566.02 337 564.04 337 562 C385.18 562 433.36 562 483 562 C483 563.98 483 565.96 483 568 C483.66 568 484.32 568 485 568 C485 566.02 485 564.04 485 562 C532.85 562 580.7 562 630 562 C630 563.98 630 565.96 630 568 C630.66 568 631.32 568 632 568 C632 566.02 632 564.04 632 562 C680.18 562 728.36 562 778 562 C778 563.98 778 565.96 778 568 C778.66 568 779.32 568 780 568 C780 566.02 780 564.04 780 562 C828.18 562 876.36 562 926 562 C926 563.98 926 565.96 926 568 C926.66 568 927.32 568 928 568 C928 566.02 928 564.04 928 562 C959.02 562 990.04 562 1022 562 C1022 383.8 1022 205.6 1022 22 C713.45 22 404.9 22 87 22 Z " fill="#FDFDFD" transform="translate(0,0)"/>
<path d="M0 0 C308.55 0 617.1 0 935 0 C935 178.2 935 356.4 935 540 C903.98 540 872.96 540 841 540 C841 541.98 841 543.96 841 546 C840.34 546 839.68 546 839 546 C839 544.02 839 542.04 839 540 C790.82 540 742.64 540 693 540 C693 541.98 693 543.96 693 546 C692.34 546 691.68 546 691 546 C691 544.02 691 542.04 691 540 C642.82 540 594.64 540 545 540 C545 541.98 545 543.96 545 546 C544.34 546 543.68 546 543 546 C543 544.02 543 542.04 543 540 C495.15 540 447.3 540 398 540 C398 541.98 398 543.96 398 546 C397.34 546 396.68 546 396 546 C396 544.02 396 542.04 396 540 C347.82 540 299.64 540 250 540 C250 541.98 250 543.96 250 546 C249.34 546 248.68 546 248 546 C248 544.02 248 542.04 248 540 C199.82 540 151.64 540 102 540 C102 541.98 102 543.96 102 546 C101.34 546 100.68 546 100 546 C100 544.02 100 542.04 100 540 C67 540 34 540 0 540 C0 539.34 0 538.68 0 538 C1.98 538 3.96 538 6 538 C6 503.02 6 468.04 6 432 C4.02 432 2.04 432 0 432 C0 431.34 0 430.68 0 430 C1.98 430 3.96 430 6 430 C6 395.02 6 360.04 6 324 C4.02 324 2.04 324 0 324 C0 323.34 0 322.68 0 322 C1.98 322 3.96 322 6 322 C6 287.35 6 252.7 6 217 C4.02 217 2.04 217 0 217 C0 216.34 0 215.68 0 215 C1.98 215 3.96 215 6 215 C6 180.02 6 145.04 6 109 C4.02 109 2.04 109 0 109 C0 108.34 0 107.68 0 107 C1.98 107 3.96 107 6 107 C6 72.35 6 37.7 6 2 C4.02 2 2.04 2 0 2 C0 1.34 0 0.68 0 0 Z M8 2 C8 178.88 8 355.76 8 538 C21.53 538 35.06 538 49 538 C49 394.12 49 250.24 49 102 C66.16 102 83.32 102 101 102 C101 91.44 101 80.88 101 70 C118.16 70 135.32 70 153 70 C153 224.44 153 378.88 153 538 C410.4 538 667.8 538 933 538 C933 361.12 933 184.24 933 2 C627.75 2 322.5 2 8 2 Z " fill="#6197D2" transform="translate(87,22)"/>
<path d="M0 0 C17.16 0 34.32 0 52 0 C52 154.44 52 308.88 52 468 C34.84 468 17.68 468 0 468 C0 313.56 0 159.12 0 0 Z " fill="#E59561" transform="translate(188,92)"/>
<path d="M0 0 C1.22070025 0.00669217 1.22070025 0.00669217 2.46606112 0.01351953 C3.32798838 0.01039954 4.18991565 0.00727956 5.07796192 0.00406504 C7.98307214 -0.0039496 10.88797549 0.00242211 13.79308748 0.00869775 C15.86893 0.00598942 17.94477156 0.00242939 20.02061129 -0.00192237 C25.67129719 -0.0110675 31.32191036 -0.00749338 36.9725976 -0.0011642 C42.8747177 0.00388483 48.7768314 -0.00079258 54.67895174 -0.00393653 C64.59217117 -0.00757939 74.50536085 -0.00276871 84.41857576 0.00674462 C95.89409012 0.01762977 107.36953341 0.01410442 118.84504604 0.00309181 C128.68198507 -0.00597198 138.51890265 -0.0072708 148.3558445 -0.00203085 C154.23789654 0.00109386 160.11991513 0.0014845 166.00196505 -0.00510383 C171.53077775 -0.01086347 177.05949846 -0.00690581 182.58830118 0.00468469 C184.62250856 0.00733869 186.65672362 0.00655365 188.69092798 0.00215936 C191.45779386 -0.00326845 194.22436099 0.00350417 196.9912076 0.01351953 C197.80500777 0.00905808 198.61880794 0.00459664 199.45726871 0 C205.00033429 0.03918674 205.00033429 0.03918674 207.22863436 2.26748681 C207.48260164 5.03811669 207.48260164 5.03811669 207.48742342 8.61318994 C207.49268038 9.58904298 207.49268038 9.58904298 207.49804354 10.58461022 C207.50686065 12.73942699 207.50101198 14.89391659 207.49425936 17.04873681 C207.49560602 18.54324429 207.49754656 20.03775134 207.5000577 21.53225732 C207.50300892 24.66621083 207.49871143 27.80005043 207.48937654 30.93399072 C207.47798192 34.95598694 207.48454141 38.97771626 207.49652147 42.99970269 C207.50374016 46.08629398 207.50145212 49.17282174 207.49626589 52.25941491 C207.49492941 53.74262039 207.49657705 55.22583159 207.50122499 56.70903039 C207.50629047 58.78010412 207.4985802 60.85074247 207.48742342 62.92178369 C207.48583223 64.10155786 207.48424105 65.28133203 207.48260164 66.49685693 C207.22863436 69.26748681 207.22863436 69.26748681 205.22863436 71.26748681 C202.45004673 71.46527129 199.77101877 71.53669367 196.9912076 71.5214541 C195.6983167 71.52613407 195.6983167 71.52613407 194.37930679 71.53090858 C191.47419657 71.53892322 188.56929323 71.53255151 185.66418123 71.52627587 C183.58833871 71.5289842 181.51249715 71.53254423 179.43665743 71.53689599 C173.78597152 71.54604112 168.13535835 71.54246701 162.48467112 71.53613782 C156.58255101 71.53108879 150.68043731 71.53576621 144.77831697 71.53891015 C134.86509754 71.54255301 124.95190787 71.53774233 115.03869295 71.528229 C103.5631786 71.51734385 92.0877353 71.5208692 80.61222267 71.53188181 C70.77528365 71.5409456 60.93836607 71.54224442 51.10142422 71.53700447 C45.21937218 71.53387976 39.33735358 71.53348912 33.45530367 71.54007745 C27.92649097 71.5458371 22.39777025 71.54187943 16.86896753 71.53028893 C14.83476016 71.52763493 12.80054509 71.52841997 10.76634073 71.53281426 C7.99947485 71.53824207 5.23290772 71.53146945 2.46606112 71.5214541 C1.65226095 71.52591554 0.83846078 71.53037698 0 71.53497362 C-5.54306557 71.49578688 -5.54306557 71.49578688 -7.77136564 69.26748681 C-8.02533293 66.49685693 -8.02533293 66.49685693 -8.03015471 62.92178369 C-8.03365934 62.27121499 -8.03716398 61.6206463 -8.04077482 60.9503634 C-8.04959194 58.79554664 -8.04374327 56.64105703 -8.03699064 54.48623681 C-8.0383373 52.99172933 -8.04027784 51.49722228 -8.04278898 50.0027163 C-8.04574021 46.86876279 -8.04144272 43.73492319 -8.03210783 40.6009829 C-8.02071321 36.57898668 -8.0272727 32.55725736 -8.03925276 28.53527093 C-8.04647144 25.44867964 -8.04418341 22.36215189 -8.03899717 19.27555871 C-8.0376607 17.79235323 -8.03930833 16.30914203 -8.04395628 14.82594323 C-8.04902176 12.7548695 -8.04131148 10.68423115 -8.03015471 8.61318994 C-8.02856352 7.43341577 -8.02697233 6.2536416 -8.02533293 5.03811669 C-7.53619977 -0.29803096 -4.68177554 0.03309785 0 0 Z " fill="#F8F8F8" transform="translate(804.7713656425476,30.732513189315796)"/>
<path d="M0 0 C17.16 0 34.32 0 52 0 C52 73.26 52 146.52 52 222 C34.84 222 17.68 222 0 222 C0 148.74 0 75.48 0 0 Z " fill="#6197D2" transform="translate(136,124)"/>
<path d="M0 0 C308.55 0 617.1 0 935 0 C935 178.2 935 356.4 935 540 C903.98 540 872.96 540 841 540 C841 541.98 841 543.96 841 546 C840.34 546 839.68 546 839 546 C839 544.02 839 542.04 839 540 C790.82 540 742.64 540 693 540 C693 541.98 693 543.96 693 546 C692.34 546 691.68 546 691 546 C691 544.02 691 542.04 691 540 C642.82 540 594.64 540 545 540 C545 541.98 545 543.96 545 546 C544.34 546 543.68 546 543 546 C543 544.02 543 542.04 543 540 C495.15 540 447.3 540 398 540 C398 541.98 398 543.96 398 546 C397.34 546 396.68 546 396 546 C396 544.02 396 542.04 396 540 C347.82 540 299.64 540 250 540 C250 541.98 250 543.96 250 546 C249.34 546 248.68 546 248 546 C248 544.02 248 542.04 248 540 C199.82 540 151.64 540 102 540 C102 541.98 102 543.96 102 546 C101.34 546 100.68 546 100 546 C100 544.02 100 542.04 100 540 C67 540 34 540 0 540 C0 539.34 0 538.68 0 538 C1.98 538 3.96 538 6 538 C6 503.02 6 468.04 6 432 C4.02 432 2.04 432 0 432 C0 431.34 0 430.68 0 430 C1.98 430 3.96 430 6 430 C6 395.02 6 360.04 6 324 C4.02 324 2.04 324 0 324 C0 323.34 0 322.68 0 322 C1.98 322 3.96 322 6 322 C6 287.35 6 252.7 6 217 C4.02 217 2.04 217 0 217 C0 216.34 0 215.68 0 215 C1.98 215 3.96 215 6 215 C6 180.02 6 145.04 6 109 C4.02 109 2.04 109 0 109 C0 108.34 0 107.68 0 107 C1.98 107 3.96 107 6 107 C6 72.35 6 37.7 6 2 C4.02 2 2.04 2 0 2 C0 1.34 0 0.68 0 0 Z M8 2 C8 178.88 8 355.76 8 538 C313.25 538 618.5 538 933 538 C933 361.12 933 184.24 933 2 C627.75 2 322.5 2 8 2 Z " fill="#292929" transform="translate(87,22)"/>
<path d="M0 0 C17.16 0 34.32 0 52 0 C52 27.06 52 54.12 52 82 C17.68 82 -16.64 82 -52 82 C-52 73.42 -52 64.84 -52 56 C-34.84 56 -17.68 56 0 56 C0 37.52 0 19.04 0 0 Z " fill="#E69561" transform="translate(336,478)"/>
<path d="M0 0 C17.16 0 34.32 0 52 0 C52 9.9 52 19.8 52 30 C18.01 30 -15.98 30 -51 30 C-51 27.36 -51 24.72 -51 22 C-34.17 22 -17.34 22 0 22 C0 14.74 0 7.48 0 0 Z " fill="#E69561" transform="translate(631,530)"/>
<path d="M0 0 C308.55 0 617.1 0 935 0 C935 0.66 935 1.32 935 2 C903.98 2 872.96 2 841 2 C841 3.98 841 5.96 841 8 C840.34 8 839.68 8 839 8 C839 6.02 839 4.04 839 2 C790.82 2 742.64 2 693 2 C693 3.98 693 5.96 693 8 C692.34 8 691.68 8 691 8 C691 6.02 691 4.04 691 2 C642.82 2 594.64 2 545 2 C545 3.98 545 5.96 545 8 C544.34 8 543.68 8 543 8 C543 6.02 543 4.04 543 2 C495.15 2 447.3 2 398 2 C398 3.98 398 5.96 398 8 C397.34 8 396.68 8 396 8 C396 6.02 396 4.04 396 2 C347.82 2 299.64 2 250 2 C250 3.98 250 5.96 250 8 C249.34 8 248.68 8 248 8 C248 6.02 248 4.04 248 2 C199.82 2 151.64 2 102 2 C102 3.98 102 5.96 102 8 C101.34 8 100.68 8 100 8 C100 6.02 100 4.04 100 2 C67 2 34 2 0 2 C0 1.34 0 0.68 0 0 Z " fill="#242323" transform="translate(87,560)"/>
<path d="M0 0 C16.83 0 33.66 0 51 0 C51 11.55 51 23.1 51 35 C34.17 35 17.34 35 0 35 C0 23.45 0 11.9 0 0 Z " fill="#E69561" transform="translate(484,525)"/>
<path d="M0 0 C17.16 0 34.32 0 52 0 C52 8.58 52 17.16 52 26 C34.84 26 17.68 26 0 26 C0 17.42 0 8.84 0 0 Z " fill="#6197D3" transform="translate(284,534)"/>
<path d="M0 0 C17.16 0 34.32 0 52 0 C52 5.61 52 11.22 52 17 C17.68 17 -16.64 17 -52 17 C-52 14.69 -52 12.38 -52 10 C-34.84 10 -17.68 10 0 10 C0 6.7 0 3.4 0 0 Z " fill="#E69561" transform="translate(779,543)"/>
<path d="M0 0 C1.22070025 0.00669217 1.22070025 0.00669217 2.46606112 0.01351953 C3.32798838 0.01039954 4.18991565 0.00727956 5.07796192 0.00406504 C7.98307214 -0.0039496 10.88797549 0.00242211 13.79308748 0.00869775 C15.86893 0.00598942 17.94477156 0.00242939 20.02061129 -0.00192237 C25.67129719 -0.0110675 31.32191036 -0.00749338 36.9725976 -0.0011642 C42.8747177 0.00388483 48.7768314 -0.00079258 54.67895174 -0.00393653 C64.59217117 -0.00757939 74.50536085 -0.00276871 84.41857576 0.00674462 C95.89409012 0.01762977 107.36953341 0.01410442 118.84504604 0.00309181 C128.68198507 -0.00597198 138.51890265 -0.0072708 148.3558445 -0.00203085 C154.23789654 0.00109386 160.11991513 0.0014845 166.00196505 -0.00510383 C171.53077775 -0.01086347 177.05949846 -0.00690581 182.58830118 0.00468469 C184.62250856 0.00733869 186.65672362 0.00655365 188.69092798 0.00215936 C191.45779386 -0.00326845 194.22436099 0.00350417 196.9912076 0.01351953 C197.80500777 0.00905808 198.61880794 0.00459664 199.45726871 0 C205.00033429 0.03918674 205.00033429 0.03918674 207.22863436 2.26748681 C207.48260164 5.03811669 207.48260164 5.03811669 207.48742342 8.61318994 C207.49268038 9.58904298 207.49268038 9.58904298 207.49804354 10.58461022 C207.50686065 12.73942699 207.50101198 14.89391659 207.49425936 17.04873681 C207.49560602 18.54324429 207.49754656 20.03775134 207.5000577 21.53225732 C207.50300892 24.66621083 207.49871143 27.80005043 207.48937654 30.93399072 C207.47798192 34.95598694 207.48454141 38.97771626 207.49652147 42.99970269 C207.50374016 46.08629398 207.50145212 49.17282174 207.49626589 52.25941491 C207.49492941 53.74262039 207.49657705 55.22583159 207.50122499 56.70903039 C207.50629047 58.78010412 207.4985802 60.85074247 207.48742342 62.92178369 C207.48583223 64.10155786 207.48424105 65.28133203 207.48260164 66.49685693 C207.22863436 69.26748681 207.22863436 69.26748681 205.22863436 71.26748681 C202.45004673 71.46527129 199.77101877 71.53669367 196.9912076 71.5214541 C195.6983167 71.52613407 195.6983167 71.52613407 194.37930679 71.53090858 C191.47419657 71.53892322 188.56929323 71.53255151 185.66418123 71.52627587 C183.58833871 71.5289842 181.51249715 71.53254423 179.43665743 71.53689599 C173.78597152 71.54604112 168.13535835 71.54246701 162.48467112 71.53613782 C156.58255101 71.53108879 150.68043731 71.53576621 144.77831697 71.53891015 C134.86509754 71.54255301 124.95190787 71.53774233 115.03869295 71.528229 C103.5631786 71.51734385 92.0877353 71.5208692 80.61222267 71.53188181 C70.77528365 71.5409456 60.93836607 71.54224442 51.10142422 71.53700447 C45.21937218 71.53387976 39.33735358 71.53348912 33.45530367 71.54007745 C27.92649097 71.5458371 22.39777025 71.54187943 16.86896753 71.53028893 C14.83476016 71.52763493 12.80054509 71.52841997 10.76634073 71.53281426 C7.99947485 71.53824207 5.23290772 71.53146945 2.46606112 71.5214541 C1.65226095 71.52591554 0.83846078 71.53037698 0 71.53497362 C-5.54306557 71.49578688 -5.54306557 71.49578688 -7.77136564 69.26748681 C-8.02533293 66.49685693 -8.02533293 66.49685693 -8.03015471 62.92178369 C-8.03365934 62.27121499 -8.03716398 61.6206463 -8.04077482 60.9503634 C-8.04959194 58.79554664 -8.04374327 56.64105703 -8.03699064 54.48623681 C-8.0383373 52.99172933 -8.04027784 51.49722228 -8.04278898 50.0027163 C-8.04574021 46.86876279 -8.04144272 43.73492319 -8.03210783 40.6009829 C-8.02071321 36.57898668 -8.0272727 32.55725736 -8.03925276 28.53527093 C-8.04647144 25.44867964 -8.04418341 22.36215189 -8.03899717 19.27555871 C-8.0376607 17.79235323 -8.03930833 16.30914203 -8.04395628 14.82594323 C-8.04902176 12.7548695 -8.04131148 10.68423115 -8.03015471 8.61318994 C-8.02856352 7.43341577 -8.02697233 6.2536416 -8.02533293 5.03811669 C-7.53619977 -0.29803096 -4.68177554 0.03309785 0 0 Z M-5.77136564 3.26748681 C-5.87071712 5.2869889 -5.89936072 7.30999596 -5.90076017 9.33193994 C-5.90391233 10.62998559 -5.9070645 11.92803124 -5.91031218 13.26541162 C-5.9085224 14.69318702 -5.90647144 16.12096212 -5.90417814 17.54873681 C-5.90485122 19.00222819 -5.90582128 20.45571945 -5.90707731 21.90921044 C-5.9085541 24.95914808 -5.90640034 28.00905647 -5.90173674 31.05899072 C-5.89603945 34.9767924 -5.89931855 38.89452559 -5.9053092 42.81232476 C-5.90891533 45.81479435 -5.90777599 48.81724758 -5.90518141 51.81971765 C-5.90451228 53.26467419 -5.90534007 54.7096322 -5.90766096 56.15458703 C-5.91018829 58.17073564 -5.90565616 60.18688943 -5.90076017 62.20303369 C-5.89996458 63.35251489 -5.89916899 64.50199609 -5.89834929 65.68631005 C-6.06434652 68.19834187 -6.06434652 68.19834187 -4.77136564 69.26748681 C-2.08035048 69.36754943 0.58506917 69.40188643 3.27660799 69.39447045 C4.13021929 69.39603044 4.9838306 69.39759043 5.86330891 69.3991977 C8.74616892 69.40321142 11.628977 69.40001662 14.51183748 69.39688134 C16.5694499 69.39823522 18.62706207 69.40001507 20.68467379 69.4021914 C26.28988086 69.40676736 31.89506963 69.40497551 37.50027704 69.40181231 C43.3521535 69.39928955 49.20402834 69.40162602 55.05590487 69.40319848 C64.88513138 69.40502042 74.71435039 69.40261322 84.54357576 69.3978579 C95.92534486 69.39241524 107.30709605 69.39417788 118.68886471 69.39968431 C128.44168756 69.40421474 138.194505 69.40486633 147.94732857 69.40224564 C153.78072926 69.40068248 159.61412153 69.40049016 165.44752169 69.40378213 C170.93032916 69.40665983 176.41311342 69.40468702 181.89591837 69.39888787 C183.91442053 69.39755973 185.93292463 69.3979553 187.95142603 69.40015054 C190.6945311 69.40285993 193.43756055 69.39948352 196.18066072 69.39447045 C196.99027396 69.39670117 197.79988719 69.3989319 198.63403416 69.40123022 C202.22813242 69.72501197 202.22813242 69.72501197 205.22863436 68.26748681 C205.32798584 66.24798472 205.35662944 64.22497766 205.35802889 62.20303369 C205.36275713 60.2559652 205.36275713 60.2559652 205.36758089 58.26956201 C205.36579111 56.8417866 205.36374016 55.4140115 205.36144686 53.98623681 C205.36211994 52.53274543 205.36308999 51.07925417 205.36434603 49.62576318 C205.36582282 46.57582554 205.36366906 43.52591715 205.35900545 40.4759829 C205.35330816 36.55818122 205.35658727 32.64044803 205.36257792 28.72264886 C205.36618404 25.72017927 205.36504471 22.71772604 205.36245012 19.71525598 C205.361781 18.27029943 205.36260878 16.82534143 205.36492968 15.38038659 C205.36745701 13.36423798 205.36292487 11.34808419 205.35802889 9.33193994 C205.3572333 8.18245873 205.3564377 7.03297753 205.355618 5.84866357 C205.52161524 3.33663175 205.52161524 3.33663175 204.22863436 2.26748681 C201.53761919 2.16742419 198.87219955 2.13308719 196.18066072 2.14050317 C195.32704942 2.13894318 194.47343812 2.13738319 193.59395981 2.13577592 C190.71109979 2.1317622 187.82829171 2.134957 184.94543123 2.13809228 C182.88781882 2.1367384 180.83020664 2.13495855 178.77259493 2.13278222 C173.16738785 2.12820626 167.56219909 2.12999811 161.95699167 2.13316131 C156.10511521 2.13568407 150.25324037 2.1333476 144.40136385 2.13177514 C134.57213734 2.1299532 124.74291833 2.1323604 114.91369295 2.13711572 C103.53192386 2.14255838 92.15017267 2.14079574 80.76840401 2.13528931 C71.01558116 2.13075888 61.26276371 2.13010729 51.50994015 2.13272798 C45.67653945 2.13429114 39.84314719 2.13448346 34.00974703 2.13119149 C28.52693956 2.12831379 23.04415529 2.13028661 17.56135035 2.13608575 C15.54284819 2.13741389 13.52434409 2.13701832 11.50584269 2.13482308 C8.76273762 2.13211369 6.01970817 2.1354901 3.27660799 2.14050317 C2.46699476 2.13827245 1.65738153 2.13604172 0.82323456 2.13374341 C-2.7708637 1.80996165 -2.7708637 1.80996165 -5.77136564 3.26748681 Z " fill="#D6D6D6" transform="translate(804.7713656425476,30.732513189315796)"/>
<path d="M0 0 C17.16 0 34.32 0 52 0 C52 2.64 52 5.28 52 8 C17.68 8 -16.64 8 -52 8 C-52 7.34 -52 6.68 -52 6 C-34.84 6 -17.68 6 0 6 C0 4.02 0 2.04 0 0 Z " fill="#CB9577" transform="translate(927,552)"/>
<path d="M0 0 C12.21 0 24.42 0 37 0 C37 4.62 37 9.24 37 14 C24.79 14 12.58 14 0 14 C0 9.38 0 4.76 0 0 Z " fill="#E69561" transform="translate(806,75)"/>
<path d="M0 0 C12.21 0 24.42 0 37 0 C37 4.29 37 8.58 37 13 C24.79 13 12.58 13 0 13 C0 8.71 0 4.42 0 0 Z " fill="#6197D3" transform="translate(806,44)"/>
<path d="M0 0 C16.83 0 33.66 0 51 0 C51 2.64 51 5.28 51 8 C34.17 8 17.34 8 0 8 C0 5.36 0 2.72 0 0 Z " fill="#6197D3" transform="translate(580,552)"/>
<path d="M0 0 C17.16 0 34.32 0 52 0 C52 2.31 52 4.62 52 7 C34.84 7 17.68 7 0 7 C0 4.69 0 2.38 0 0 Z " fill="#6197D3" transform="translate(727,553)"/>
<path d="M0 0 C2.5 0.5 2.5 0.5 4.3125 2 C5.9971479 5.54662716 6.07735621 8.64041327 5.5 12.5 C4.3125 15 4.3125 15 2.5 16.5 C0 17.0625 0 17.0625 -2.5 16.5 C-5.00553676 13.64887196 -5.47730838 11.71557035 -5.875 7.9375 C-5.38500418 3.44587162 -4.67139185 0.93427837 0 0 Z " fill="#2F2F2F" transform="translate(53.5,552.5)"/>
<path d="M0 0 C2.5 0.5 2.5 0.5 4.3125 2 C5.9971479 5.54662716 6.07735621 8.64041327 5.5 12.5 C4.3125 15 4.3125 15 2.5 16.5 C0 17.0625 0 17.0625 -2.5 16.5 C-5.00553676 13.64887196 -5.47730838 11.71557035 -5.875 7.9375 C-5.38500418 3.44587162 -4.67139185 0.93427837 0 0 Z " fill="#2F2F2F" transform="translate(53.5,444.5)"/>
<path d="M0 0 C2.5 0.5 2.5 0.5 4.3125 2 C5.9971479 5.54662716 6.07735621 8.64041327 5.5 12.5 C4.3125 15 4.3125 15 2.5 16.5 C0 17.0625 0 17.0625 -2.5 16.5 C-5.00553676 13.64887196 -5.47730838 11.71557035 -5.875 7.9375 C-5.38500418 3.44587162 -4.67139185 0.93427837 0 0 Z " fill="#2F2F2F" transform="translate(53.5,337.5)"/>
<path d="M0 0 C2.5 0.5 2.5 0.5 4.3125 2 C5.9971479 5.54662716 6.07735621 8.64041327 5.5 12.5 C4.3125 15 4.3125 15 2.5 16.5 C0 17.0625 0 17.0625 -2.5 16.5 C-5.00553676 13.64887196 -5.47730838 11.71557035 -5.875 7.9375 C-5.38500418 3.44587162 -4.67139185 0.93427837 0 0 Z " fill="#2F2F2F" transform="translate(53.5,229.5)"/>
<path d="M0 0 C2.5 0.5 2.5 0.5 4.3125 2 C5.9971479 5.54662716 6.07735621 8.64041327 5.5 12.5 C4.3125 15 4.3125 15 2.5 16.5 C0 17.0625 0 17.0625 -2.5 16.5 C-5.00553676 13.64887196 -5.47730838 11.71557035 -5.875 7.9375 C-5.38500418 3.44587162 -4.67139185 0.93427837 0 0 Z " fill="#2F2F2F" transform="translate(53.5,122.5)"/>
<path d="M0 0 C2.5 0.5 2.5 0.5 4.3125 2.0625 C5.95095998 5.42565469 5.88971822 7.79767686 5.5 11.5 C4.3125 14.4375 4.3125 14.4375 2.5 16.5 C0 17.125 0 17.125 -2.5 16.5 C-5.00553676 13.64887196 -5.47730838 11.71557035 -5.875 7.9375 C-5.38500418 3.44587162 -4.67139185 0.93427837 0 0 Z " fill="#383838" transform="translate(72.5,552.5)"/>
<path d="M0 0 C2.5 0.5 2.5 0.5 4.3125 2.0625 C5.95095998 5.42565469 5.88971822 7.79767686 5.5 11.5 C4.3125 14.4375 4.3125 14.4375 2.5 16.5 C0 17.125 0 17.125 -2.5 16.5 C-5.00553676 13.64887196 -5.47730838 11.71557035 -5.875 7.9375 C-5.38500418 3.44587162 -4.67139185 0.93427837 0 0 Z " fill="#383838" transform="translate(72.5,14.5)"/>
<path d="M0 0 C2.375 1 2.375 1 4 3 C4 5.64 4 8.28 4 11 C-1.94 11 -7.88 11 -14 11 C-14 10.34 -14 9.68 -14 9 C-12.35 8.67 -10.7 8.34 -9 8 C-9.061875 7.236875 -9.12375 6.47375 -9.1875 5.6875 C-9 3 -9 3 -7.875 1.1875 C-5.11646047 -0.55957504 -3.20161236 -0.39203417 0 0 Z " fill="#1D1D1D" transform="translate(28,379)"/>
<path d="M0 0 C5.94 0 11.88 0 18 0 C18 8 18 8 16.375 10 C13.34303035 11.2766188 11.25996064 11.41616519 8 11 C6.0625 9.875 6.0625 9.875 5 8 C5.3125 4.8125 5.3125 4.8125 6 2 C4.02 2 2.04 2 0 2 C0 1.34 0 0.68 0 0 Z " fill="#1F1F1F" transform="translate(14,194)"/>
<path d="M0 0 C2.33944736 0.28730055 4.6739143 0.61936779 7 1 C7.05386629 3.12472576 7.09273071 5.24983652 7.125 7.375 C7.14820312 8.55835938 7.17140625 9.74171875 7.1953125 10.9609375 C7 14 7 14 5 16 C2 16.3125 2 16.3125 -1 16 C-3 13 -3 13 -2.625 11 C-2.41875 10.34 -2.2125 9.68 -2 9 C-2 8.01 -2 7.02 -2 6 C-1.2 1.2 -1.2 1.2 0 0 Z " fill="#1F1F1F" transform="translate(70,123)"/>
<path d="M0 0 C2.375 1.5 2.375 1.5 4 3 C3.6875 6.375 3.6875 6.375 3 10 C0 12 0 12 -3.5625 11.8125 C-7 11 -7 11 -9 8 C-9.35384949 5.16920408 -9.3920891 3.63169911 -7.875 1.1875 C-5.11646047 -0.55957504 -3.20161236 -0.39203417 0 0 Z " fill="#363636" transform="translate(28,365)"/>
<path d="M0 0 C1.9375 1.1875 1.9375 1.1875 3 3 C3.42317323 5.82115488 3.38718434 7.33950907 1.9375 9.8125 C-1.09375543 11.67036623 -3.53422859 11.37133265 -7 11 C-8.9375 9.8125 -8.9375 9.8125 -10 8 C-10.42317323 5.17884512 -10.38718434 3.66049093 -8.9375 1.1875 C-5.90624457 -0.67036623 -3.46577141 -0.37133265 0 0 Z " fill="#1B1B1B" transform="translate(29,394)"/>
<path d="M0 0 C0.9075 0.103125 1.815 0.20625 2.75 0.3125 C2.75 0.9725 2.75 1.6325 2.75 2.3125 C0.77 2.6425 -1.21 2.9725 -3.25 3.3125 C-3.58 4.3025 -3.91 5.2925 -4.25 6.3125 C-3.30125 6.27125 -2.3525 6.23 -1.375 6.1875 C1.75 6.3125 1.75 6.3125 3.75 8.3125 C4.11487512 11.15852594 4.15199375 12.6989306 2.5625 15.125 C0.05260677 16.76941281 -1.31232599 16.9000348 -4.25 16.3125 C-6.50906051 13.6639463 -7.18615418 11.75029993 -7.6875 8.3125 C-6.95569319 3.29439619 -5.20218549 0.50021014 0 0 Z " fill="#2C2C2C" transform="translate(74.25,229.6875)"/>
<path d="M0 0 C0.66 0 1.32 0 2 0 C2 4.95 2 9.9 2 15 C-0.31 15 -2.62 15 -5 15 C-7.30163882 11.54754176 -7.34490322 10.05261287 -7 6 C-5 4 -5 4 -2.375 3.875 C-1.59125 3.91625 -0.8075 3.9575 0 4 C0 2.68 0 1.36 0 0 Z " fill="#2E2E2E" transform="translate(939,73)"/>
<path d="M0 0 C0.66 0 1.32 0 2 0 C2 4.95 2 9.9 2 15 C-0.31 15 -2.62 15 -5 15 C-7.30163882 11.54754176 -7.34490322 10.05261287 -7 6 C-5 4 -5 4 -2.375 3.875 C-1.59125 3.91625 -0.8075 3.9575 0 4 C0 2.68 0 1.36 0 0 Z " fill="#2E2E2E" transform="translate(933,41)"/>
<path d="M0 0 C2.31 0 4.62 0 7 0 C9.56687367 3.8503105 8.83288724 5.58569763 8 10 C6.35 10.33 4.7 10.66 3 11 C2.67 12.32 2.34 13.64 2 15 C1.34 15 0.68 15 0 15 C0 10.05 0 5.1 0 0 Z " fill="#212121" transform="translate(205,579)"/>
<path d="M0 0 C0.78375 0.04125 1.5675 0.0825 2.375 0.125 C2.375 3.095 2.375 6.065 2.375 9.125 C3.365 8.465 4.355 7.805 5.375 7.125 C5.62515873 3.54142759 5.62515873 3.54142759 5.375 0.125 C6.365 0.455 7.355 0.785 8.375 1.125 C8.73415493 7.47007042 8.73415493 7.47007042 7.3125 10.0625 C4.25523824 11.7390629 1.7843712 11.49028977 -1.625 11.125 C-3.5625 10 -3.5625 10 -4.625 8.125 C-4.9375 5.0625 -4.9375 5.0625 -4.625 2.125 C-2.625 0.125 -2.625 0.125 0 0 Z " fill="#141414" transform="translate(23.625,325.875)"/>
<path d="M0 0 C0 2.97 0 5.94 0 9 C0.99 8.67 1.98 8.34 3 8 C3 5.36 3 2.72 3 0 C3.99 0.33 4.98 0.66 6 1 C6.35915493 7.34507042 6.35915493 7.34507042 4.9375 9.9375 C1.88023824 11.6140629 -0.5906288 11.36528977 -4 11 C-5.9375 9.8125 -5.9375 9.8125 -7 8 C-7.4387102 5.07526531 -7.44316113 3.64258364 -5.75 1.1875 C-4 0 -4 0 0 0 Z " fill="#1E1E1E" transform="translate(26,179)"/>
<path d="M0 0 C0.99 0 1.98 0 3 0 C3 3.3 3 6.6 3 10 C3.66 10 4.32 10 5 10 C5 10.66 5 11.32 5 12 C4.34 12 3.68 12 3 12 C3 13.32 3 14.64 3 16 C2.34 16 1.68 16 1 16 C1 14.68 1 13.36 1 12 C-1.31 12 -3.62 12 -6 12 C-5.56629155 7.2292071 -3.35665609 3.36635741 0 0 Z " fill="#323232" transform="translate(73,338)"/>
<path d="M0 0 C2.5 0.25 2.5 0.25 4.5 2.25 C4.75 5.75 4.75 5.75 4.5 9.25 C2.5 11.25 2.5 11.25 0 11.5625 C-1.2375 11.4078125 -1.2375 11.4078125 -2.5 11.25 C-4.80163882 7.79754176 -4.84490322 6.30261287 -4.5 2.25 C-2.5 0.25 -2.5 0.25 0 0 Z " fill="#2F2F2F" transform="translate(917.5,76.75)"/>
<path d="M0 0 C2.5 0.25 2.5 0.25 4.5 2.25 C4.75 5.75 4.75 5.75 4.5 9.25 C2.5 11.25 2.5 11.25 0 11.5625 C-1.2375 11.4078125 -1.2375 11.4078125 -2.5 11.25 C-4.80163882 7.79754176 -4.84490322 6.30261287 -4.5 2.25 C-2.5 0.25 -2.5 0.25 0 0 Z " fill="#2F2F2F" transform="translate(875.5,76.75)"/>
<path d="M0 0 C2.5 0.25 2.5 0.25 4.5 2.25 C4.75 5.75 4.75 5.75 4.5 9.25 C2.5 11.25 2.5 11.25 0 11.5625 C-1.2375 11.4078125 -1.2375 11.4078125 -2.5 11.25 C-4.80163882 7.79754176 -4.84490322 6.30261287 -4.5 2.25 C-2.5 0.25 -2.5 0.25 0 0 Z " fill="#2F2F2F" transform="translate(911.5,44.75)"/>
<path d="M0 0 C2.5 0.25 2.5 0.25 4.5 2.25 C4.83870968 8.57258065 4.83870968 8.57258065 3.5 11.25 C2.84 10.92 2.18 10.59 1.5 10.25 C1.5 7.94 1.5 5.63 1.5 3.25 C0.51 3.25 -0.48 3.25 -1.5 3.25 C-1.974375 4.384375 -2.44875 5.51875 -2.9375 6.6875 C-4.5 10.25 -4.5 10.25 -5.5 11.25 C-7.9375 11.4375 -7.9375 11.4375 -10.5 11.25 C-12.5 9.25 -12.5 9.25 -12.6953125 7.3046875 C-12.63020833 5.28645833 -12.56510417 3.26822917 -12.5 1.25 C-11.51 1.58 -10.52 1.91 -9.5 2.25 C-9.5 4.23 -9.5 6.21 -9.5 8.25 C-8.51 8.25 -7.52 8.25 -6.5 8.25 C-6.21125 7.30125 -5.9225 6.3525 -5.625 5.375 C-3.82780083 0.38278008 -3.82780083 0.38278008 0 0 Z " fill="#252525" transform="translate(27.5,407.75)"/>
<path d="M0 0 C0.66 0 1.32 0 2 0 C2.33 1.32 2.66 2.64 3 4 C3.66 2.68 4.32 1.36 5 0 C5.99 0 6.98 0 8 0 C8.33 1.65 8.66 3.3 9 5 C9.66 3.35 10.32 1.7 11 0 C11.66 0 12.32 0 13 0 C12.52269162 1.4589426 12.04308958 2.91713496 11.5625 4.375 C11.29566406 5.18710937 11.02882813 5.99921875 10.75390625 6.8359375 C10 9 10 9 9 11 C8.01 11 7.02 11 6 11 C5.67 9.35 5.34 7.7 5 6 C4.34 7.65 3.68 9.3 3 11 C2.01 11 1.02 11 0 11 C0 7.37 0 3.74 0 0 Z " fill="#444444" transform="translate(761,577)"/>
<path d="M0 0 C0.66 0 1.32 0 2 0 C2.33 1.32 2.66 2.64 3 4 C3.66 2.68 4.32 1.36 5 0 C5.99 0 6.98 0 8 0 C8.33 1.65 8.66 3.3 9 5 C9.66 3.35 10.32 1.7 11 0 C11.66 0 12.32 0 13 0 C12.52269162 1.4589426 12.04308958 2.91713496 11.5625 4.375 C11.29566406 5.18710937 11.02882813 5.99921875 10.75390625 6.8359375 C10 9 10 9 9 11 C8.01 11 7.02 11 6 11 C5.67 9.35 5.34 7.7 5 6 C4.34 7.65 3.68 9.3 3 11 C2.01 11 1.02 11 0 11 C0 7.37 0 3.74 0 0 Z " fill="#444444" transform="translate(461,577)"/>
<path d="M0 0 C0.66 0.33 1.32 0.66 2 1 C2 1.66 2 2.32 2 3 C0.700625 2.979375 -0.59875 2.95875 -1.9375 2.9375 C-3.29165633 2.91600546 -4.64756083 2.92851801 -6 3 C-7.35618499 4.12534105 -7.35618499 4.12534105 -7.0625 7.0625 C-7.041875 8.031875 -7.02125 9.00125 -7 10 C-4.69 10.66 -2.38 11.32 0 12 C0 10.68 0 9.36 0 8 C-0.99 8 -1.98 8 -3 8 C-3 7.34 -3 6.68 -3 6 C-1.35 6 0.3 6 2 6 C2 8.31 2 10.62 2 13 C-0.84083641 14.42041821 -2.85477278 14.31452272 -6 14 C-8.375 12.375 -8.375 12.375 -10 10 C-10.61195145 6.3282913 -10.48706506 4.71186432 -8.375 1.625 C-5.36281721 -0.43596718 -3.5817622 -0.38932198 0 0 Z " fill="#363636" transform="translate(141,576)"/>
<path d="M0 0 C2.875 -0.125 2.875 -0.125 6 0 C8 2 8 2 8.1953125 4.1640625 C8.17210937 4.97617188 8.14890625 5.78828125 8.125 6.625 C8.10695313 7.44226563 8.08890625 8.25953125 8.0703125 9.1015625 C8.03550781 10.04128906 8.03550781 10.04128906 8 11 C4.625 11.125 4.625 11.125 1 11 C0.34 10.34 -0.32 9.68 -1 9 C-0.46428571 5.46428571 -0.46428571 5.46428571 1 4 C2.66617115 3.95936168 4.33388095 3.957279 6 4 C6 3.34 6 2.68 6 2 C4.02 2 2.04 2 0 2 C0 1.34 0 0.68 0 0 Z " fill="#585858" transform="translate(891,77)"/>
<path d="M0 0 C2.375 -0.125 2.375 -0.125 5 0 C7 2 7 2 7.1953125 4.1640625 C7.17210937 4.97617187 7.14890625 5.78828125 7.125 6.625 C7.10695312 7.44226563 7.08890625 8.25953125 7.0703125 9.1015625 C7.03550781 10.04128906 7.03550781 10.04128906 7 11 C4.66705225 11.04241723 2.33297433 11.04092937 0 11 C-1 10 -1 10 -1.125 7.5 C-1 5 -1 5 0 4 C1.66617115 3.95936168 3.33388095 3.957279 5 4 C5 3.34 5 2.68 5 2 C3.02 2 1.04 2 -1 2 C-0.67 1.34 -0.34 0.68 0 0 Z " fill="#545454" transform="translate(189,579)"/>
<path d="M0 0 C1.99954746 -0.04254356 4.00041636 -0.04080783 6 0 C7 1 7 1 7.09765625 3.28515625 C7.08605469 4.20167969 7.07445312 5.11820313 7.0625 6.0625 C7.05347656 6.98160156 7.04445312 7.90070312 7.03515625 8.84765625 C7.02355469 9.55792969 7.01195312 10.26820313 7 11 C4.66705225 11.04241723 2.33297433 11.04092937 0 11 C-1 10 -1 10 -1.0625 7.4375 C-1.041875 6.633125 -1.02125 5.82875 -1 5 C0.98 4.34 2.96 3.68 5 3 C3.35 2.67 1.7 2.34 0 2 C0 1.34 0 0.68 0 0 Z " fill="#7E7E7E" transform="translate(229,579)"/>
<path d="M0 0 C5.625 -0.25 5.625 -0.25 9 2 C9.5 4.25 9.5 4.25 9 7 C7.49710537 9.21781326 5.83573591 11.0265839 4 13 C5.65 13.33 7.3 13.66 9 14 C9 14.66 9 15.32 9 16 C5.7 16 2.4 16 -1 16 C0.52079302 12.95841396 1.45819796 11.31337943 3.625 8.9375 C6.31436107 6.24076887 6.31436107 6.24076887 6 3 C3.69 3 1.38 3 -1 3 C-0.67 2.01 -0.34 1.02 0 0 Z " fill="#2B2B2B" transform="translate(68,445)"/>
<path d="M0 0 C3.125 0.375 3.125 0.375 6 1 C6.625 3.3125 6.625 3.3125 7 6 C6.01 7.485 6.01 7.485 5 9 C2.5 9.3125 2.5 9.3125 0 9 C-2 7 -2 7 -2.25 4.5 C-2 2 -2 2 0 0 Z " fill="#949494" transform="translate(343,585)"/>
<path d="M0 0 C1.32 0 2.64 0 4 0 C5.12256131 2.24512262 5.13413762 3.51456649 5.125 6 C5.12757812 6.70125 5.13015625 7.4025 5.1328125 8.125 C5 10 5 10 4 12 C2.35 11.67 0.7 11.34 -1 11 C-1.02688151 9.35425434 -1.04634123 7.70838587 -1.0625 6.0625 C-1.07410156 5.14597656 -1.08570313 4.22945312 -1.09765625 3.28515625 C-1 1 -1 1 0 0 Z " fill="#F1F1F1" transform="translate(52,555)"/>
<path d="M0 0 C1.32 0 2.64 0 4 0 C5.12256131 2.24512262 5.13413762 3.51456649 5.125 6 C5.12757812 6.70125 5.13015625 7.4025 5.1328125 8.125 C5 10 5 10 4 12 C2.35 11.67 0.7 11.34 -1 11 C-1.02688151 9.35425434 -1.04634123 7.70838587 -1.0625 6.0625 C-1.07410156 5.14597656 -1.08570313 4.22945313 -1.09765625 3.28515625 C-1 1 -1 1 0 0 Z " fill="#F1F1F1" transform="translate(52,447)"/>
<path d="M0 0 C1.32 0 2.64 0 4 0 C5.12256131 2.24512262 5.13413762 3.51456649 5.125 6 C5.12757812 6.70125 5.13015625 7.4025 5.1328125 8.125 C5 10 5 10 4 12 C2.35 11.67 0.7 11.34 -1 11 C-1.02688151 9.35425434 -1.04634123 7.70838587 -1.0625 6.0625 C-1.07410156 5.14597656 -1.08570313 4.22945313 -1.09765625 3.28515625 C-1 1 -1 1 0 0 Z " fill="#F1F1F1" transform="translate(52,340)"/>
<path d="M0 0 C1.32 0 2.64 0 4 0 C5.12256131 2.24512262 5.13413762 3.51456649 5.125 6 C5.12757812 6.70125 5.13015625 7.4025 5.1328125 8.125 C5 10 5 10 4 12 C2.35 11.67 0.7 11.34 -1 11 C-1.02688151 9.35425434 -1.04634123 7.70838587 -1.0625 6.0625 C-1.07410156 5.14597656 -1.08570313 4.22945312 -1.09765625 3.28515625 C-1 1 -1 1 0 0 Z " fill="#F1F1F1" transform="translate(52,232)"/>
<path d="M0 0 C1.32 0 2.64 0 4 0 C5.12256131 2.24512262 5.13413762 3.51456649 5.125 6 C5.12757812 6.70125 5.13015625 7.4025 5.1328125 8.125 C5 10 5 10 4 12 C2.35 11.67 0.7 11.34 -1 11 C-1.02688151 9.35425434 -1.04634123 7.70838587 -1.0625 6.0625 C-1.07410156 5.14597656 -1.08570313 4.22945312 -1.09765625 3.28515625 C-1 1 -1 1 0 0 Z " fill="#F1F1F1" transform="translate(52,125)"/>
<path d="M0 0 C0.66 0 1.32 0 2 0 C2 1.32 2 2.64 2 4 C2.763125 3.319375 3.52625 2.63875 4.3125 1.9375 C5.199375 1.298125 6.08625 0.65875 7 0 C7.99 0.33 8.98 0.66 10 1 C8.02 2.65 6.04 4.3 4 6 C4.28875 6.5775 4.5775 7.155 4.875 7.75 C5.91666667 9.83333333 6.95833333 11.91666667 8 14 C5.37812506 12.95125002 4.20628639 12.35068687 2.75 9.875 C2.5025 9.25625 2.255 8.6375 2 8 C1.34 8 0.68 8 0 8 C0 9.98 0 11.96 0 14 C-0.66 14 -1.32 14 -2 14 C-1.85923685 12.0412957 -1.7122324 10.08303907 -1.5625 8.125 C-1.48128906 7.03445313 -1.40007813 5.94390625 -1.31640625 4.8203125 C-1 2 -1 2 0 0 Z " fill="#2E2E2E" transform="translate(900,577)"/>
<path d="M0 0 C0.66 0 1.32 0 2 0 C2 1.32 2 2.64 2 4 C2.763125 3.319375 3.52625 2.63875 4.3125 1.9375 C5.199375 1.298125 6.08625 0.65875 7 0 C7.99 0.33 8.98 0.66 10 1 C8.02 2.65 6.04 4.3 4 6 C4.28875 6.5775 4.5775 7.155 4.875 7.75 C5.91666667 9.83333333 6.95833333 11.91666667 8 14 C5.37812506 12.95125002 4.20628639 12.35068687 2.75 9.875 C2.5025 9.25625 2.255 8.6375 2 8 C1.34 8 0.68 8 0 8 C0 9.98 0 11.96 0 14 C-0.66 14 -1.32 14 -2 14 C-1.85923685 12.0412957 -1.7122324 10.08303907 -1.5625 8.125 C-1.48128906 7.03445313 -1.40007813 5.94390625 -1.31640625 4.8203125 C-1 2 -1 2 0 0 Z " fill="#2E2E2E" transform="translate(608,577)"/>
<path d="M0 0 C0.66 0 1.32 0 2 0 C2 1.32 2 2.64 2 4 C2.763125 3.319375 3.52625 2.63875 4.3125 1.9375 C5.199375 1.298125 6.08625 0.65875 7 0 C7.99 0.33 8.98 0.66 10 1 C8.02 2.65 6.04 4.3 4 6 C4.28875 6.5775 4.5775 7.155 4.875 7.75 C5.91666667 9.83333333 6.95833333 11.91666667 8 14 C5.37812506 12.95125002 4.20628639 12.35068687 2.75 9.875 C2.5025 9.25625 2.255 8.6375 2 8 C1.34 8 0.68 8 0 8 C0 9.98 0 11.96 0 14 C-0.66 14 -1.32 14 -2 14 C-1.85923685 12.0412957 -1.7122324 10.08303907 -1.5625 8.125 C-1.48128906 7.03445313 -1.40007812 5.94390625 -1.31640625 4.8203125 C-1 2 -1 2 0 0 Z " fill="#2E2E2E" transform="translate(308,577)"/>
<path d="M0 0 C0.90105469 0.01804688 1.80210938 0.03609375 2.73046875 0.0546875 C3.41753906 0.07789063 4.10460938 0.10109375 4.8125 0.125 C4.8125 0.785 4.8125 1.445 4.8125 2.125 C1.5125 2.455 -1.7875 2.785 -5.1875 3.125 C-4.8575 4.775 -4.5275 6.425 -4.1875 8.125 C-1.2175 8.455 1.7525 8.785 4.8125 9.125 C4.8125 9.785 4.8125 10.445 4.8125 11.125 C0.5225 11.125 -3.7675 11.125 -8.1875 11.125 C-8.48046875 4.2890625 -8.48046875 4.2890625 -8.1875 2.125 C-4.87379 -0.08414 -3.8428979 -0.09981553 0 0 Z " fill="#2B2B2B" transform="translate(27.1875,207.875)"/>
<path d="M0 0 C0.33 1.65 0.66 3.3 1 5 C-1.31 5 -3.62 5 -6 5 C-5.67 5.66 -5.34 6.32 -5 7 C-1.97065509 7.65772428 -1.97065509 7.65772428 1 8 C0.67 8.66 0.34 9.32 0 10 C-2.31 9.67 -4.62 9.34 -7 9 C-8.33078101 2.58805513 -8.33078101 2.58805513 -6.875 0 C-4.28103624 -1.38344734 -2.74857743 -0.81714464 0 0 Z " fill="#4A4A4A" transform="translate(952,78)"/>
<path d="M0 0 C0.33 1.65 0.66 3.3 1 5 C-1.31 5 -3.62 5 -6 5 C-5.67 5.66 -5.34 6.32 -5 7 C-1.97065509 7.65772428 -1.97065509 7.65772428 1 8 C0.67 8.66 0.34 9.32 0 10 C-2.31 9.67 -4.62 9.34 -7 9 C-8.33078101 2.58805513 -8.33078101 2.58805513 -6.875 0 C-4.28103624 -1.38344734 -2.74857743 -0.81714464 0 0 Z " fill="#4A4A4A" transform="translate(946,46)"/>
<path d="M0 0 C2.62758953 0.95167821 5.25194493 1.91097121 7.875 2.875 C8.62136719 3.14441406 9.36773437 3.41382813 10.13671875 3.69140625 C15.7734375 5.7734375 15.7734375 5.7734375 18 8 C18 8.99 18 9.98 18 11 C17.34 11 16.68 11 16 11 C16 10.01 16 9.02 16 8 C10.34979382 8.60108576 5.33835539 10.07528683 0 12 C1 9 1 9 2.84765625 8.05078125 C4.8984375 7.3671875 6.94921875 6.68359375 9 6 C6.03 5.01 3.06 4.02 0 3 C0 2.01 0 1.02 0 0 Z " fill="#1C1C1C" transform="translate(19,235)"/>
<path d="M0 0 C0.66 0 1.32 0 2 0 C2 1.32 2 2.64 2 4 C4.97 4 7.94 4 11 4 C11 2.68 11 1.36 11 0 C11.66 0 12.32 0 13 0 C13.125 2.375 13.125 2.375 13 5 C10.45969541 7.54030459 9.15306578 7.39901205 5.625 7.6875 C4.19027344 7.81705078 4.19027344 7.81705078 2.7265625 7.94921875 C0.23230819 7.99567334 -1.63691517 7.7447637 -4 7 C-4 6.34 -4 5.68 -4 5 C-2.68 5 -1.36 5 0 5 C0 3.35 0 1.7 0 0 Z " fill="#3A3A3A" transform="translate(19,248)"/>
<path d="M0 0 C0.99773438 0.02320313 1.99546875 0.04640625 3.0234375 0.0703125 C4.52777344 0.09738281 4.52777344 0.09738281 6.0625 0.125 C6.83335938 0.14820313 7.60421875 0.17140625 8.3984375 0.1953125 C8.3984375 0.8553125 8.3984375 1.5153125 8.3984375 2.1953125 C5.0984375 2.5253125 1.7984375 2.8553125 -1.6015625 3.1953125 C-1.6015625 4.5153125 -1.6015625 5.8353125 -1.6015625 7.1953125 C1.6984375 7.5253125 4.9984375 7.8553125 8.3984375 8.1953125 C8.3984375 8.8553125 8.3984375 9.5153125 8.3984375 10.1953125 C4.1084375 10.1953125 -0.1815625 10.1953125 -4.6015625 10.1953125 C-4.796875 4.140625 -4.796875 4.140625 -4.6015625 2.1953125 C-2.6015625 0.1953125 -2.6015625 0.1953125 0 0 Z " fill="#171717" transform="translate(23.6015625,311.8046875)"/>
<path d="M0 0 C3.465 1.485 3.465 1.485 7 3 C7.61875 2.505 8.2375 2.01 8.875 1.5 C11 0 11 0 13 0 C12.0022242 2.99332739 11.2477975 3.94766315 9 6 C10.32 6.99 11.64 7.98 13 9 C12.67 9.66 12.34 10.32 12 11 C11.1646875 10.2265625 11.1646875 10.2265625 10.3125 9.4375 C8.08891765 7.74080807 8.08891765 7.74080807 5.4375 8.1875 C2.78621711 8.95249269 2.78621711 8.95249269 0 11 C0.56371414 7.73045798 1.49962266 6.17424117 4 4 C2.68 3.34 1.36 2.68 0 2 C0 1.34 0 0.68 0 0 Z " fill="#161616" transform="translate(19,166)"/>
<path d="M0 0 C1.134375 0.020625 2.26875 0.04125 3.4375 0.0625 C3.4375 0.7225 3.4375 1.3825 3.4375 2.0625 C1.4575 2.3925 -0.5225 2.7225 -2.5625 3.0625 C-2.5625 3.7225 -2.5625 4.3825 -2.5625 5.0625 C-0.0875 6.0525 -0.0875 6.0525 2.4375 7.0625 C2.5625 9.4375 2.5625 9.4375 2.4375 12.0625 C0.4375 14.0625 0.4375 14.0625 -3.1875 14.1875 C-4.30125 14.14625 -5.415 14.105 -6.5625 14.0625 C-6.8925 13.4025 -7.2225 12.7425 -7.5625 12.0625 C-4.9225 12.0625 -2.2825 12.0625 0.4375 12.0625 C0.4375 10.7425 0.4375 9.4225 0.4375 8.0625 C-1.5425 7.4025 -3.5225 6.7425 -5.5625 6.0625 C-4.48849278 0.07874549 -4.48849278 0.07874549 0 0 Z " fill="#252525" transform="translate(983.5625,73.9375)"/>
<path d="M0 0 C1.134375 0.020625 2.26875 0.04125 3.4375 0.0625 C3.4375 0.7225 3.4375 1.3825 3.4375 2.0625 C1.4575 2.3925 -0.5225 2.7225 -2.5625 3.0625 C-2.5625 3.7225 -2.5625 4.3825 -2.5625 5.0625 C-0.0875 6.0525 -0.0875 6.0525 2.4375 7.0625 C2.5625 9.4375 2.5625 9.4375 2.4375 12.0625 C0.4375 14.0625 0.4375 14.0625 -3.1875 14.1875 C-4.30125 14.14625 -5.415 14.105 -6.5625 14.0625 C-6.8925 13.4025 -7.2225 12.7425 -7.5625 12.0625 C-4.9225 12.0625 -2.2825 12.0625 0.4375 12.0625 C0.4375 10.7425 0.4375 9.4225 0.4375 8.0625 C-1.5425 7.4025 -3.5225 6.7425 -5.5625 6.0625 C-4.48849278 0.07874549 -4.48849278 0.07874549 0 0 Z " fill="#252525" transform="translate(977.5625,41.9375)"/>
<path d="M0 0 C0.66 0 1.32 0 2 0 C2 1.32 2 2.64 2 4 C4.97 4 7.94 4 11 4 C11 2.68 11 1.36 11 0 C11.66 0 12.32 0 13 0 C13.042721 1.66611905 13.04063832 3.33382885 13 5 C12 6 12 6 9.71484375 6.09765625 C8.34005859 6.08025391 8.34005859 6.08025391 6.9375 6.0625 C6.01839844 6.05347656 5.09929688 6.04445313 4.15234375 6.03515625 C3.44207031 6.02355469 2.73179688 6.01195312 2 6 C2 6.66 2 7.32 2 8 C-0.97 7.505 -0.97 7.505 -4 7 C-4 6.01 -4 5.02 -4 4 C-2.68 4 -1.36 4 0 4 C0 2.68 0 1.36 0 0 Z " fill="#262626" transform="translate(19,283)"/>
<path d="M0 0 C1.98 0.495 1.98 0.495 4 1 C4 4.3 4 7.6 4 11 C2.68 11.33 1.36 11.66 0 12 C-1 11 -1 11 -1.1328125 8.75 C-1.13023438 7.8425 -1.12765625 6.935 -1.125 6 C-1.12757812 5.0925 -1.13015625 4.185 -1.1328125 3.25 C-1 1 -1 1 0 0 Z " fill="#FDFDFD" transform="translate(71,555)"/>
<path d="M0 0 C4.875 0.875 4.875 0.875 6 2 C6.04080783 3.99958364 6.04254356 6.00045254 6 8 C5.01 8.495 5.01 8.495 4 9 C3.87625 8.030625 3.7525 7.06125 3.625 6.0625 C3.41875 5.051875 3.2125 4.04125 3 3 C2.34 2.67 1.68 2.34 1 2 C0.34 4.31 -0.32 6.62 -1 9 C-2.65 9 -4.3 9 -6 9 C-7.35439668 6.29120665 -7.06501451 3.99066732 -7 1 C-6.34 1 -5.68 1 -5 1 C-5 2.98 -5 4.96 -5 7 C-4.01 7 -3.02 7 -2 7 C-1.855625 6.21625 -1.71125 5.4325 -1.5625 4.625 C-1 2 -1 2 0 0 Z " fill="#222222" transform="translate(26,299)"/>
<path d="M0 0 C1.98 0.495 1.98 0.495 4 1 C4 4.3 4 7.6 4 11 C2.68 11.33 1.36 11.66 0 12 C-1 11 -1 11 -1.1328125 8.75 C-1.13023438 7.8425 -1.12765625 6.935 -1.125 6 C-1.12757812 5.0925 -1.13015625 4.185 -1.1328125 3.25 C-1 1 -1 1 0 0 Z " fill="#FDFDFD" transform="translate(71,17)"/>
<path d="M0 0 C0 1.65 0 3.3 0 5 C-6.75 6.125 -6.75 6.125 -9 5 C-9 3.35 -9 1.7 -9 0 C-5.93109813 -1.53445094 -3.29905734 -0.54984289 0 0 Z " fill="#F2F2F2" transform="translate(30,397)"/>
<path d="M0 0 C2.5 0.25 2.5 0.25 4.5 2.25 C4.125 4.875 4.125 4.875 3.5 7.25 C1.19 7.25 -1.12 7.25 -3.5 7.25 C-4.125 4.875 -4.125 4.875 -4.5 2.25 C-2.5 0.25 -2.5 0.25 0 0 Z " fill="#ECECEC" transform="translate(25.5,380.75)"/>
<path d="M0 0 C2.5 0.25 2.5 0.25 4.5 2.25 C4.125 4.875 4.125 4.875 3.5 7.25 C1.19 7.25 -1.12 7.25 -3.5 7.25 C-4.125 4.875 -4.125 4.875 -4.5 2.25 C-2.5 0.25 -2.5 0.25 0 0 Z " fill="#EEEEEE" transform="translate(25.5,366.75)"/>
<path d="M0 0 C0.33 0 0.66 0 1 0 C1 2.31 1 4.62 1 7 C1.99 7 2.98 7 4 7 C4.66 4.69 5.32 2.38 6 0 C10.875 0.875 10.875 0.875 12 2 C12.04092937 4.33297433 12.04241723 6.66705225 12 9 C11.01 8.67 10.02 8.34 9 8 C9.33 6.02 9.66 4.04 10 2 C9.01 2.33 8.02 2.66 7 3 C5.77479736 6.00847418 5.77479736 6.00847418 5 9 C0.125 8.125 0.125 8.125 -1 7 C-1.125 4 -1.125 4 -1 1 C-0.67 0.67 -0.34 0.34 0 0 Z " fill="#1D1D1D" transform="translate(20,340)"/>
<path d="M0 0 C1.60433809 0.47859241 3.20846416 0.95789558 4.8125 1.4375 C6.15248047 1.83775391 6.15248047 1.83775391 7.51953125 2.24609375 C9.35473055 2.80387873 11.18033726 3.39344575 13 4 C12.7734375 5.890625 12.7734375 5.890625 12 8 C10.0390625 9.046875 10.0390625 9.046875 7.625 9.75 C6.83351563 9.99234375 6.04203125 10.2346875 5.2265625 10.484375 C3 11 3 11 0 11 C0 10.34 0 9.68 0 9 C2.97 8.01 5.94 7.02 9 6 C4.545 4.02 4.545 4.02 0 2 C0 1.34 0 0.68 0 0 Z " fill="#1E1E1E" transform="translate(19,264)"/>
<path d="M0 0 C-0.875 4.875 -0.875 4.875 -2 6 C-4.4375 6.1875 -4.4375 6.1875 -7 6 C-7.66 5.34 -8.32 4.68 -9 4 C-9 2.68 -9 1.36 -9 0 C-5.93109813 -1.53445094 -3.29905734 -0.54984289 0 0 Z " fill="#F1F1F1" transform="translate(30,197)"/>
<path d="M0 0 C1.65 0 3.3 0 5 0 C5 4.62 5 9.24 5 14 C5.99 14 6.98 14 8 14 C8 14.66 8 15.32 8 16 C5.36 16 2.72 16 0 16 C0 15.34 0 14.68 0 14 C0.99 14 1.98 14 3 14 C3 10.04 3 6.08 3 2 C1.68 2.33 0.36 2.66 -1 3 C-0.67 2.01 -0.34 1.02 0 0 Z " fill="#121212" transform="translate(50,15)"/>
<path d="M0 0 C2.64 0 5.28 0 8 0 C8 0.66 8 1.32 8 2 C6.02 2 4.04 2 2 2 C2 2.99 2 3.98 2 5 C3.65 5 5.3 5 7 5 C7 5.66 7 6.32 7 7 C5.35 7 3.7 7 2 7 C2 9.31 2 11.62 2 14 C1.34 14 0.68 14 0 14 C0 9.38 0 4.76 0 0 Z " fill="#303030" transform="translate(861,42)"/>
<path d="M0 0 C3 1 3 1 5 4 C5.33 2.68 5.66 1.36 6 0 C6.66 0 7.32 0 8 0 C8 2.97 8 5.94 8 9 C7.01 9 6.02 9 5 9 C4.34 7.68 3.68 6.36 3 5 C2.67 6.32 2.34 7.64 2 9 C1.34 9 0.68 9 0 9 C0 6.03 0 3.06 0 0 Z " fill="#515151" transform="translate(941,585)"/>
<path d="M0 0 C3 1 3 1 5 4 C5.33 2.68 5.66 1.36 6 0 C6.66 0 7.32 0 8 0 C8 2.97 8 5.94 8 9 C7.01 9 6.02 9 5 9 C4.34 7.68 3.68 6.36 3 5 C2.67 6.32 2.34 7.64 2 9 C1.34 9 0.68 9 0 9 C0 6.03 0 3.06 0 0 Z " fill="#515151" transform="translate(491,582)"/>
<path d="M0 0 C0.33 0 0.66 0 1 0 C0.67 3.3 0.34 6.6 0 10 C-1.98 10 -3.96 10 -6 10 C-6.3125 7.6875 -6.3125 7.6875 -6 5 C-3.5625 3.3125 -3.5625 3.3125 -1 2 C-0.67 1.34 -0.34 0.68 0 0 Z " fill="#363636" transform="translate(916,584)"/>
<path d="M0 0 C0.33 0 0.66 0 1 0 C0.67 3.3 0.34 6.6 0 10 C-1.98 10 -3.96 10 -6 10 C-6.3125 7.6875 -6.3125 7.6875 -6 5 C-3.5625 3.3125 -3.5625 3.3125 -1 2 C-0.67 1.34 -0.34 0.68 0 0 Z " fill="#363636" transform="translate(624,584)"/>
<path d="M0 0 C0.33 0 0.66 0 1 0 C0.67 3.3 0.34 6.6 0 10 C-1.98 10 -3.96 10 -6 10 C-6.3125 7.6875 -6.3125 7.6875 -6 5 C-3.5625 3.3125 -3.5625 3.3125 -1 2 C-0.67 1.34 -0.34 0.68 0 0 Z " fill="#363636" transform="translate(324,584)"/>
<path d="M0 0 C0 0.66 0 1.32 0 2 C-1.65 2 -3.3 2 -5 2 C-3.60804085 4.7839183 -1.84424221 4.97898997 1 6 C1 7.32 1 8.64 1 10 C-1.70879335 11.35439668 -4.00933268 11.06501451 -7 11 C-7 10.34 -7 9.68 -7 9 C-5.02 9 -3.04 9 -1 9 C-2.39195915 6.2160817 -4.15575779 6.02101003 -7 5 C-7 3.68 -7 2.36 -7 1 C-4.53721199 -0.231394 -2.7204945 -0.07159196 0 0 Z " fill="#353535" transform="translate(890,45)"/>
<path d="M0 0 C2.33294775 -0.04241723 4.66702567 -0.04092937 7 0 C8 1 8 1 8.09765625 3.28515625 C8.08605469 4.20167969 8.07445312 5.11820313 8.0625 6.0625 C8.05347656 6.98160156 8.04445312 7.90070312 8.03515625 8.84765625 C8.02355469 9.55792969 8.01195312 10.26820313 8 11 C7.67 11 7.34 11 7 11 C6.67 8.36 6.34 5.72 6 3 C5.01 3 4.02 3 3 3 C2.67 5.64 2.34 8.28 2 11 C1.34 11 0.68 11 0 11 C0 7.37 0 3.74 0 0 Z " fill="#252525" transform="translate(163,579)"/>
<path d="M0 0 C2 1 2 1 3 2 C3.14115161 4.67058851 3.04247107 7.32432238 3 10 C-0.875 9.125 -0.875 9.125 -2 8 C-2.1875 5.0625 -2.1875 5.0625 -2 2 C-1.34 1.34 -0.68 0.68 0 0 Z " fill="#222222" transform="translate(21,326)"/>
<path d="M0 0 C0.66 0 1.32 0 2 0 C2 0.99 2 1.98 2 3 C2.99 3 3.98 3 5 3 C5 3.66 5 4.32 5 5 C4.01 5 3.02 5 2 5 C2 7.31 2 9.62 2 12 C2.99 12 3.98 12 5 12 C5 12.66 5 13.32 5 14 C3.35 13.67 1.7 13.34 0 13 C-0.19551338 11.39679026 -0.38111983 9.79237014 -0.5625 8.1875 C-0.71912109 6.84751953 -0.71912109 6.84751953 -0.87890625 5.48046875 C-1 3 -1 3 0 0 Z " fill="#383838" transform="translate(883,74)"/>
<path d="M0 0 C0.66 0 1.32 0 2 0 C2 0.99 2 1.98 2 3 C2.99 3 3.98 3 5 3 C5 3.66 5 4.32 5 5 C4.01 5 3.02 5 2 5 C2 7.31 2 9.62 2 12 C2.99 12 3.98 12 5 12 C5 12.66 5 13.32 5 14 C3.35 13.67 1.7 13.34 0 13 C-0.19551338 11.39679026 -0.38111983 9.79237014 -0.5625 8.1875 C-0.71912109 6.84751953 -0.71912109 6.84751953 -0.87890625 5.48046875 C-1 3 -1 3 0 0 Z " fill="#383838" transform="translate(894,42)"/>
<path d="M0 0 C2.5625 0.1875 2.5625 0.1875 4.5625 2.1875 C4.90120968 8.51008065 4.90120968 8.51008065 3.5625 11.1875 C2.9025 10.8575 2.2425 10.5275 1.5625 10.1875 C1.5625 7.8775 1.5625 5.5675 1.5625 3.1875 C-0.60624252 3.69353992 -2.43717627 4.18733813 -4.4375 5.1875 C-3.32386364 0.25568182 -3.32386364 0.25568182 0 0 Z " fill="#161616" transform="translate(27.4375,407.8125)"/>
<path d="M0 0 C2.0625 0.4375 2.0625 0.4375 4 1 C4.33 2.65 4.66 4.3 5 6 C3.34385343 6.38218767 1.67542976 6.71395102 0 7 C-1 6 -1 6 -1.125 3.5 C-1 1 -1 1 0 0 Z " fill="#E9E9E9" transform="translate(71,237)"/>
<path d="M0 0 C2.475 0.495 2.475 0.495 5 1 C5 2.65 5 4.3 5 6 C3.35 6.33 1.7 6.66 0 7 C0 4.69 0 2.38 0 0 Z " fill="#F6F6F6" transform="translate(207,581)"/>
<path d="M0 0 C3.375 -0.125 3.375 -0.125 7 0 C7.66 0.66 8.32 1.32 9 2 C8.42307692 8.57692308 8.42307692 8.57692308 7 10 C5.00041636 10.04080783 2.99954746 10.04254356 1 10 C4 8 4 8 6 7 C5.67 5.35 5.34 3.7 5 2 C3.35 1.67 1.7 1.34 0 1 C0 0.67 0 0.34 0 0 Z " fill="#151515" transform="translate(23,366)"/>
<path d="M0 0 C0.33 0 0.66 0 1 0 C1 2.97 1 5.94 1 9 C1.99 9 2.98 9 4 9 C4 9.66 4 10.32 4 11 C3.34 11 2.68 11 2 11 C2 12.32 2 13.64 2 15 C1.34 15 0.68 15 0 15 C0 13.68 0 12.36 0 11 C-2.31 11 -4.62 11 -7 11 C-6.67 10.34 -6.34 9.68 -6 9 C-3.03 9.495 -3.03 9.495 0 10 C0 6.7 0 3.4 0 0 Z " fill="#0C0C0C" transform="translate(74,339)"/>
<path d="M0 0 C1.32 0 2.64 0 4 0 C4 2.31 4 4.62 4 7 C2.35 6.67 0.7 6.34 -1 6 C-1.042721 4.33388095 -1.04063832 2.66617115 -1 1 C-0.67 0.67 -0.34 0.34 0 0 Z " fill="#F7F7F7" transform="translate(935,79)"/>
<path d="M0 0 C1.32 0 2.64 0 4 0 C4 2.31 4 4.62 4 7 C2.35 6.67 0.7 6.34 -1 6 C-1.042721 4.33388095 -1.04063832 2.66617115 -1 1 C-0.67 0.67 -0.34 0.34 0 0 Z " fill="#F8F8F8" transform="translate(916,79)"/>
<path d="M0 0 C1.32 0 2.64 0 4 0 C4 2.31 4 4.62 4 7 C2.35 6.67 0.7 6.34 -1 6 C-1.042721 4.33388095 -1.04063832 2.66617115 -1 1 C-0.67 0.67 -0.34 0.34 0 0 Z " fill="#F8F8F8" transform="translate(874,79)"/>
<path d="M0 0 C1.32 0 2.64 0 4 0 C4 2.31 4 4.62 4 7 C2.35 6.67 0.7 6.34 -1 6 C-1.042721 4.33388095 -1.04063832 2.66617115 -1 1 C-0.67 0.67 -0.34 0.34 0 0 Z " fill="#F7F7F7" transform="translate(929,47)"/>
<path d="M0 0 C1.32 0 2.64 0 4 0 C4 2.31 4 4.62 4 7 C2.35 6.67 0.7 6.34 -1 6 C-1.042721 4.33388095 -1.04063832 2.66617115 -1 1 C-0.67 0.67 -0.34 0.34 0 0 Z " fill="#F8F8F8" transform="translate(910,47)"/>
<path d="M0 0 C5.94 0 11.88 0 18 0 C17.01 0.495 17.01 0.495 16 1 C16 1.66 16 2.32 16 3 C13.03 3 10.06 3 7 3 C7 2.34 7 1.68 7 1 C4.69 1 2.38 1 0 1 C0 0.67 0 0.34 0 0 Z " fill="#090909" transform="translate(14,194)"/>
<path d="M0 0 C1.98 0 3.96 0 6 0 C6 0.66 6 1.32 6 2 C4.68 2 3.36 2 2 2 C2 4.97 2 7.94 2 11 C1.34 11 0.68 11 0 11 C0 7.37 0 3.74 0 0 Z " fill="#3A3A3A" transform="translate(957,77)"/>
<path d="M0 0 C1.98 0 3.96 0 6 0 C6 0.66 6 1.32 6 2 C4.68 2 3.36 2 2 2 C2 4.97 2 7.94 2 11 C1.34 11 0.68 11 0 11 C0 7.37 0 3.74 0 0 Z " fill="#3A3A3A" transform="translate(926,77)"/>
<path d="M0 0 C1.98 0 3.96 0 6 0 C6 0.66 6 1.32 6 2 C4.68 2 3.36 2 2 2 C2 4.97 2 7.94 2 11 C1.34 11 0.68 11 0 11 C0 7.37 0 3.74 0 0 Z " fill="#3A3A3A" transform="translate(951,45)"/>
<path d="M0 0 C1.98 0 3.96 0 6 0 C6 0.66 6 1.32 6 2 C4.68 2 3.36 2 2 2 C2 4.97 2 7.94 2 11 C1.34 11 0.68 11 0 11 C0 7.37 0 3.74 0 0 Z " fill="#3A3A3A" transform="translate(920,45)"/>
<path d="M0 0 C1.98 0 3.96 0 6 0 C6 0.66 6 1.32 6 2 C4.68 2 3.36 2 2 2 C2 4.97 2 7.94 2 11 C1.34 11 0.68 11 0 11 C0 7.37 0 3.74 0 0 Z " fill="#3A3A3A" transform="translate(876,45)"/>
<path d="M0 0 C0.66 0 1.32 0 2 0 C2.66 0.66 3.32 1.32 4 2 C4.99 1.34 5.98 0.68 7 0 C6.835 0.928125 6.67 1.85625 6.5 2.8125 C5.92251612 5.95621353 5.92251612 5.95621353 6 9 C5.01 8.34 4.02 7.68 3 7 C2.01 7.66 1.02 8.32 0 9 C0.185625 8.071875 0.37125 7.14375 0.5625 6.1875 C1.24123881 2.98656229 1.24123881 2.98656229 0 0 Z " fill="#424242" transform="translate(650,585)"/>
<path d="M0 0 C0.66 0 1.32 0 2 0 C2.66 0.66 3.32 1.32 4 2 C4.99 1.34 5.98 0.68 7 0 C6.835 0.928125 6.67 1.85625 6.5 2.8125 C5.92251612 5.95621353 5.92251612 5.95621353 6 9 C5.01 8.34 4.02 7.68 3 7 C2.01 7.66 1.02 8.32 0 9 C0.185625 8.071875 0.37125 7.14375 0.5625 6.1875 C1.24123881 2.98656229 1.24123881 2.98656229 0 0 Z " fill="#424242" transform="translate(792,582)"/>
<path d="M0 0 C1.99954746 -0.04254356 4.00041636 -0.04080783 6 0 C7 1 7 1 7.09765625 3.28515625 C7.08605469 4.20167969 7.07445312 5.11820313 7.0625 6.0625 C7.05347656 6.98160156 7.04445312 7.90070312 7.03515625 8.84765625 C7.02355469 9.55792969 7.01195312 10.26820313 7 11 C6.34 10.01 5.68 9.02 5 8 C5.33 7.01 5.66 6.02 6 5 C4.68 4.67 3.36 4.34 2 4 C2.99 3.67 3.98 3.34 5 3 C3.35 2.67 1.7 2.34 0 2 C0 1.34 0 0.68 0 0 Z " fill="#232323" transform="translate(229,579)"/>
<path d="M0 0 C1.00289062 0.10183594 2.00578125 0.20367187 3.0390625 0.30859375 C3.80992188 0.39238281 4.58078125 0.47617188 5.375 0.5625 C5.375 1.2225 5.375 1.8825 5.375 2.5625 C1.085 2.5625 -3.205 2.5625 -7.625 2.5625 C-7.625 1.9025 -7.625 1.2425 -7.625 0.5625 C-4.89657939 -0.80171031 -3.01546682 -0.31557211 0 0 Z " fill="#1F1F1F" transform="translate(26.625,216.4375)"/>
<path d="M0 0 C2.9375 1.25 2.9375 1.25 6 3 C6.875 5.1875 6.875 5.1875 7 7 C4.69 8.32 2.38 9.64 0 11 C0.56371414 7.73045798 1.49962266 6.17424117 4 4 C2.68 3.34 1.36 2.68 0 2 C0 1.34 0 0.68 0 0 Z " fill="#202020" transform="translate(19,166)"/>
<path d="M0 0 C2.0625 0.4375 2.0625 0.4375 4 1 C4 2.65 4 4.3 4 6 C2.35 6 0.7 6 -1 6 C-1.042721 4.33388095 -1.04063832 2.66617115 -1 1 C-0.67 0.67 -0.34 0.34 0 0 Z " fill="#F5F5F5" transform="translate(71,131)"/>
<path d="M0 0 C2.00720923 0.28674418 4.0085944 0.61866701 6 1 C5.67 2.32 5.34 3.64 5 5 C3.35 5 1.7 5 0 5 C-0.5625 3.0625 -0.5625 3.0625 -1 1 C-0.67 0.67 -0.34 0.34 0 0 Z " fill="#A6A6A6" transform="translate(147,583)"/>
<path d="M0 0 C3.5625 0.1875 3.5625 0.1875 5.5625 2.1875 C5.2325 3.1775 4.9025 4.1675 4.5625 5.1875 C4.5625 4.5275 4.5625 3.8675 4.5625 3.1875 C1.5925 3.1875 -1.3775 3.1875 -4.4375 3.1875 C-4.7675 3.8475 -5.0975 4.5075 -5.4375 5.1875 C-4.31932898 0.23559976 -4.31932898 0.23559976 0 0 Z " fill="#0F0F0F" transform="translate(25.4375,393.8125)"/>
<path d="M0 0 C1.65 0 3.3 0 5 0 C4.01 0.33 3.02 0.66 2 1 C2 1.99 2 2.98 2 4 C2.99 4.33 3.98 4.66 5 5 C4.01 5 3.02 5 2 5 C2 6.32 2 7.64 2 9 C1.34 9 0.68 9 0 9 C0 6.03 0 3.06 0 0 Z " fill="#444444" transform="translate(951,585)"/>
<path d="M0 0 C1.65 0 3.3 0 5 0 C4.01 0.33 3.02 0.66 2 1 C2 1.99 2 2.98 2 4 C2.99 4.33 3.98 4.66 5 5 C4.01 5 3.02 5 2 5 C2 6.32 2 7.64 2 9 C1.34 9 0.68 9 0 9 C0 6.03 0 3.06 0 0 Z " fill="#444444" transform="translate(925,585)"/>
<path d="M0 0 C1.65 0 3.3 0 5 0 C4.01 0.33 3.02 0.66 2 1 C2 1.99 2 2.98 2 4 C2.99 4.33 3.98 4.66 5 5 C4.01 5 3.02 5 2 5 C2 6.32 2 7.64 2 9 C1.34 9 0.68 9 0 9 C0 6.03 0 3.06 0 0 Z " fill="#444444" transform="translate(501,582)"/>
<path d="M0 0 C1.65 0 3.3 0 5 0 C4.01 0.33 3.02 0.66 2 1 C2 1.99 2 2.98 2 4 C2.99 4.33 3.98 4.66 5 5 C4.01 5 3.02 5 2 5 C2 6.32 2 7.64 2 9 C1.34 9 0.68 9 0 9 C0 6.03 0 3.06 0 0 Z " fill="#444444" transform="translate(475,582)"/>
<path d="M0 0 C0.99 0.33 1.98 0.66 3 1 C2.01 2.485 2.01 2.485 1 4 C0.60612212 6.32387947 0.26513915 8.65793749 0 11 C-0.66 10.67 -1.32 10.34 -2 10 C-2.25 3.375 -2.25 3.375 0 0 Z " fill="#292929" transform="translate(69,554)"/>
<path d="M0 0 C3.375 -0.125 3.375 -0.125 7 0 C9 2 9 2 9.125 5.625 C9.08375 6.73875 9.0425 7.8525 9 9 C8.34 9 7.68 9 7 9 C6.34 6.69 5.68 4.38 5 2 C3.35 1.67 1.7 1.34 0 1 C0 0.67 0 0.34 0 0 Z " fill="#1F1F1F" transform="translate(23,380)"/>
<path d="M0 0 C0.99 0.33 1.98 0.66 3 1 C2.01 2.485 2.01 2.485 1 4 C0.60612212 6.32387947 0.26513915 8.65793749 0 11 C-0.66 10.67 -1.32 10.34 -2 10 C-2.25 3.375 -2.25 3.375 0 0 Z " fill="#292929" transform="translate(69,16)"/>
<path d="M0 0 C2.375 -0.125 2.375 -0.125 5 0 C7 2 7 2 7.125 4.625 C7.08375 5.40875 7.0425 6.1925 7 7 C5.02 7.99 5.02 7.99 3 9 C3.33 7.02 3.66 5.04 4 3 C2.68 2.01 1.36 1.02 0 0 Z " fill="#181818" transform="translate(71,236)"/>
<path d="M0 0 C0.66 0.33 1.32 0.66 2 1 C2 1.66 2 2.32 2 3 C-1.66666667 3 -5.33333333 3 -9 3 C-6.39198065 -0.47735913 -4.17603192 -0.35540697 0 0 Z " fill="#3D3D3D" transform="translate(141,576)"/>
<path d="M0 0 C0.66 0 1.32 0 2 0 C2 1.65 2 3.3 2 5 C1.34 5 0.68 5 0 5 C0 5.66 0 6.32 0 7 C-1.32 7 -2.64 7 -4 7 C-4 6.01 -4 5.02 -4 4 C-2.68 4 -1.36 4 0 4 C0 2.68 0 1.36 0 0 Z " fill="#464646" transform="translate(19,283)"/>
<path d="M0 0 C0.33 0 0.66 0 1 0 C1.12375 1.093125 1.2475 2.18625 1.375 3.3125 C1.75464801 7.07381802 1.75464801 7.07381802 4 10 C2.0625 9.625 2.0625 9.625 0 9 C-1.36623674 6.26752652 -1.128426 4.01801098 -1 1 C-0.67 0.67 -0.34 0.34 0 0 Z " fill="#191919" transform="translate(132,579)"/>
<path d="M0 0 C2.375 -0.1875 2.375 -0.1875 5 0 C7.23551759 3.35327639 7.17283528 3.90743657 6.625 7.6875 C6.51414062 8.49574219 6.40328125 9.30398438 6.2890625 10.13671875 C6.19367188 10.75160156 6.09828125 11.36648438 6 12 C5.67 12 5.34 12 5 12 C4.97421875 11.38511719 4.9484375 10.77023437 4.921875 10.13671875 C4.7185352 5.00745409 4.7185352 5.00745409 1.9375 0.9375 C1.298125 0.628125 0.65875 0.31875 0 0 Z " fill="#5A5A5A" transform="translate(70,553)"/>
<path d="M0 0 C0.33 0 0.66 0 1 0 C1 2.31 1 4.62 1 7 C-0.65 7 -2.3 7 -4 7 C-2.68 4.69 -1.36 2.38 0 0 Z " fill="#E3E3E3" transform="translate(73,341)"/>
<path d="M0 0 C1.134375 0.020625 2.26875 0.04125 3.4375 0.0625 C3.4375 0.7225 3.4375 1.3825 3.4375 2.0625 C2.014375 2.248125 2.014375 2.248125 0.5625 2.4375 C-2.64917191 2.77937177 -2.64917191 2.77937177 -4.5625 5.0625 C-4.5625 0.08004386 -4.5625 0.08004386 0 0 Z " fill="#383838" transform="translate(983.5625,73.9375)"/>
<path d="M0 0 C1.134375 0.020625 2.26875 0.04125 3.4375 0.0625 C3.4375 0.7225 3.4375 1.3825 3.4375 2.0625 C2.014375 2.248125 2.014375 2.248125 0.5625 2.4375 C-2.64917191 2.77937177 -2.64917191 2.77937177 -4.5625 5.0625 C-4.5625 0.08004386 -4.5625 0.08004386 0 0 Z " fill="#383838" transform="translate(977.5625,41.9375)"/>
<path d="M0 0 C2.375 -0.1875 2.375 -0.1875 5 0 C7.23551759 3.35327639 7.17283528 3.90743657 6.625 7.6875 C6.51414062 8.49574219 6.40328125 9.30398437 6.2890625 10.13671875 C6.19367188 10.75160156 6.09828125 11.36648437 6 12 C5.67 12 5.34 12 5 12 C4.97421875 11.38511719 4.9484375 10.77023438 4.921875 10.13671875 C4.7185352 5.00745409 4.7185352 5.00745409 1.9375 0.9375 C1.298125 0.628125 0.65875 0.31875 0 0 Z " fill="#5A5A5A" transform="translate(70,15)"/>
<path d="M0 0 C0.99 0.33 1.98 0.66 3 1 C3 3.31 3 5.62 3 8 C1.68 8.33 0.36 8.66 -1 9 C-0.67 8.34 -0.34 7.68 0 7 C0.04022391 4.6670134 0.04320247 2.33293334 0 0 Z " fill="#2F2F2F" transform="translate(29,326)"/>
<path d="M0 0 C1.65 0 3.3 0 5 0 C5 1.32 5 2.64 5 4 C3.35 4 1.7 4 0 4 C0 2.68 0 1.36 0 0 Z " fill="#F2F2F2" transform="translate(70,125)"/>
<path d="M0 0 C0.66 0 1.32 0 2 0 C2 2.31 2 4.62 2 7 C1.01 6.67 0.02 6.34 -1 6 C-1.042721 4.33388095 -1.04063832 2.66617115 -1 1 C-0.67 0.67 -0.34 0.34 0 0 Z " fill="#ECECEC" transform="translate(22,328)"/>
<path d="M0 0 C0.66 0 1.32 0 2 0 C2 2.31 2 4.62 2 7 C1.01 6.67 0.02 6.34 -1 6 C-1.042721 4.33388095 -1.04063832 2.66617115 -1 1 C-0.67 0.67 -0.34 0.34 0 0 Z " fill="#ECECEC" transform="translate(22,181)"/>
<path d="M0 0 C-0.33 0.99 -0.66 1.98 -1 3 C-2.32 3 -3.64 3 -5 3 C-5.66 4.32 -6.32 5.64 -7 7 C-7 5.02 -7 3.04 -7 1 C-2.25 0 -2.25 0 0 0 Z " fill="#494949" transform="translate(213,587)"/>
<path d="M0 0 C2.56687367 3.8503105 1.83288724 5.58569763 1 10 C-1 6.25 -1 6.25 -1 4 C-1.99 3.67 -2.98 3.34 -4 3 C-2.68 3 -1.36 3 0 3 C0 2.01 0 1.02 0 0 Z " fill="#414141" transform="translate(75,126)"/>
<path d="M0 0 C0.99 0 1.98 0 3 0 C2.67 1.65 2.34 3.3 2 5 C1.01 5 0.02 5 -1 5 C-0.67 3.35 -0.34 1.7 0 0 Z " fill="#E5E5E5" transform="translate(912,588)"/>
<path d="M0 0 C0.99 0 1.98 0 3 0 C2.67 1.65 2.34 3.3 2 5 C1.01 5 0.02 5 -1 5 C-0.67 3.35 -0.34 1.7 0 0 Z " fill="#E5E5E5" transform="translate(620,588)"/>
<path d="M0 0 C0.99 0 1.98 0 3 0 C2.67 1.65 2.34 3.3 2 5 C1.01 5 0.02 5 -1 5 C-0.67 3.35 -0.34 1.7 0 0 Z " fill="#E5E5E5" transform="translate(320,588)"/>
<path d="M0 0 C0.33 0 0.66 0 1 0 C1 2.64 1 5.28 1 8 C1.66 8 2.32 8 3 8 C3 8.99 3 9.98 3 11 C2.01 11 1.02 11 0 11 C0 7.37 0 3.74 0 0 Z " fill="#151515" transform="translate(761,577)"/>
<path d="M0 0 C0.33 0 0.66 0 1 0 C1 2.64 1 5.28 1 8 C1.66 8 2.32 8 3 8 C3 8.99 3 9.98 3 11 C2.01 11 1.02 11 0 11 C0 7.37 0 3.74 0 0 Z " fill="#151515" transform="translate(461,577)"/>
</svg>
